<svg xmlns="http://www.w3.org/2000/svg"><symbol id="traid" viewBox="0 0 242 40"><path d="M129.42 3.09h-10.97v28.47h-2.22V3.09h-10.97v-2h24.16v2zm16 5.57c2.11 0 4.03.5 5.74 1.48 1.71.99 3.05 2.35 4 4.1a11.88 11.88 0 011.49 5.96c0 2.23-.5 4.23-1.49 6a10.5 10.5 0 01-4 4.1 11.56 11.56 0 01-5.74 1.43c-2 0-3.82-.46-5.44-1.4a9.95 9.95 0 01-3.8-3.95V40h-2.17V8.84h2.1v5.35a9.82 9.82 0 013.78-4.05c1.65-.99 3.5-1.48 5.53-1.48zm-.13 21.11c1.74 0 3.3-.4 4.7-1.22a8.55 8.55 0 003.26-3.4 9.98 9.98 0 001.22-4.95c0-1.86-.4-3.52-1.22-4.97a8.55 8.55 0 00-3.26-3.4 9.16 9.16 0 00-4.7-1.21c-1.75 0-3.31.4-4.7 1.22a8.95 8.95 0 00-3.27 3.4 10.27 10.27 0 00-1.17 4.96c0 1.85.39 3.5 1.17 4.96a8.95 8.95 0 003.26 3.4 9.16 9.16 0 004.7 1.21zm37.81-9.05h-19.55c.06 1.77.5 3.35 1.35 4.74a8.72 8.72 0 003.4 3.18 10.4 10.4 0 004.87 1.13c1.48 0 2.84-.26 4.09-.78a8.17 8.17 0 003.18-2.4l1.26 1.44a9.66 9.66 0 01-3.74 2.74c-1.49.64-3.1.96-4.84.96-2.26 0-4.28-.5-6.05-1.48a10.89 10.89 0 01-4.17-4.1 11.89 11.89 0 01-1.49-5.95c0-2.2.47-4.18 1.4-5.92a10.55 10.55 0 019.49-5.62c2.06 0 3.9.5 5.52 1.48a9.97 9.97 0 013.88 4.05 12.07 12.07 0 011.44 5.92l-.05.6zm-10.8-10.14a8.6 8.6 0 00-4.31 1.08c-1.28.7-2.3 1.7-3.1 3a9.8 9.8 0 00-1.3 4.36H181a9.12 9.12 0 00-1.3-4.35 8.51 8.51 0 00-7.4-4.1zm17.95-1.74h2.17V28.2l16.2-19.36h1.9v22.72h-2.17V12.19l-16.19 19.37h-1.91V8.84zm10.05-3.49c-1.83 0-3.3-.46-4.44-1.39A5.03 5.03 0 01194.12 0h1.61a3.6 3.6 0 001.3 2.83c.88.7 1.96 1.04 3.27 1.04 1.3 0 2.38-.34 3.22-1.04a3.6 3.6 0 001.3-2.83h1.66c-.03 1.68-.6 3-1.74 3.96a6.78 6.78 0 01-4.44 1.4zm40.98 24.29v7.57h-2.04v-5.65h-21.5v5.65h-2.1v-7.57H217c1.54-.09 2.58-1.28 3.13-3.57.58-2.32.99-5.57 1.22-9.75l.3-7.48h15.98v20.8h3.66zm-17.93-13.19a61.06 61.06 0 01-.87 8.62c-.43 2.3-1.22 3.82-2.35 4.57h15.32V10.8h-11.84l-.26 5.66z"/></symbol><symbol id="ntk" viewBox="0 0 242 40"><path d="M28.99 7.56V31.2h-8.62V19.31H8.62V31.2H0V.73h8.62v11.44h11.75V.73h52.09v11.83h4.13L83.86.73h9.05l-9.53 14.7L93 31.2h-9.7l-6.93-11.67h-3.91V31.2h-8.58V7.56H50.76V31.2h-8.48V7.56H28.99z"/></symbol></svg>
